{"title":"Think Like A Man 2012 TS Xvid Read NFO UnKnOwN","uid":7232338,"size":1522192442,"categoryP":"video","categoryS":"movies","magnet":"?xt=urn:btih:af799704c174b7192c8e3b4f0587430b5895087c&amp;dn=Think+Like+A+Man+2012+TS+Xvid+Read+NFO+UnKnOwN&amp;tr=udp%3A%2F%2Ftracker.openbittorrent.com%3A80&amp;tr=udp%3A%2F%2Fopen.demonii.com%3A1337&amp;tr=udp%3A%2F%2Ftracker.coppersurfer.tk%3A6969&amp;tr=udp%3A%2F%2Fexodus.desync.com%3A6969","seeders":1,"leechers":0,"uploader":"VITTORY","files":-1,"time":1335871175,"description":"Think Like A Man 2012 TS Xvid Read NFO UnKnOwN\n\n\n Four women have given up on getting their men to do what they want until they find a how to book written by Steve Harvey. They start using his advice about relationships, and their men start falling in line, until the men discover what the women have been doing, then the war is on.Written by Douglas Young (the-movie-guy)  \n &lt;a href=&quot;\nhttp://www.imdb.com/title/tt1621045/&quot; rel=&quot;nofollow&quot; target=&quot;_NEW&quot;&gt;\nhttp://www.imdb.com/title/tt1621045/&lt;/a&gt;\n\nGeneral Information\n Encoded By .......:UnKnOwN \n Runtime ..........:1:57 \n IMDb URL .........:http://www.imdb.com/title/tt1621045/ \n Language .........:English \n File Size ........:1.37gb \n Release Date ......... 2012 \n Source ......... Nunya Biz \n File Type ......... Single AVI \n PS3 Compatible ....... Go For It \n Genre ......... Comedy/Romance\n\nVideo Information\n ID : 0 \n Format : MPEG-4 Visual \n Format profile : Advanced Simple@L5 \n Format settings, BVOP : Yes \n Format settings, QPel : No \n Format settings, GMC : No warppoints \n Format settings, Matrix : Custom \n Codec ID : XVID \n Codec ID/Hint : XviD \n Duration : 1h 57mn \n Bit rate : 1400kbps \n Width : 680pixels \n Height : 254pixels \n Display aspect ratio : 2:67 \n Frame rate : 29.997fps \n Color space : YUV \n Chroma subsampling : 4:2:0 \n Bit depth : 8 bits \n Scan type : Progressive \n Bits/(Pixel*Frame) : 0.234 \n Stream size : 892 MiB (86%) \n Writing library : XviD 1.2.1 (UTC 2008-12-04) \n\nAudio Information\n ID : 1 \n Format : Mp3 \n Format/Info : MPEG \n Mode extension : CM (complete main) \n Codec ID : 2000 \n Duration : 1h 26mn \n Bit rate mode : Constant \n Bit rate : 128kbps \n Channel(s) : 2channels \n Channel positions : Front: L R \n Sampling rate : 48.0 KHz \n Bit depth : 16 bits \n Stream size : 302 MiB \n Alignment : Aligned on interleaves \n Interleave, duration : 42 ms (1.00 video frame) \n Interleave, preload duration : 512 ms\n\n\n","torrent":{"xt":"urn:btih:af799704c174b7192c8e3b4f0587430b5895087c","amp;dn":"Think+Like+A+Man+2012+TS+Xvid+Read+NFO+UnKnOwN","amp;tr":["udp%3A%2F%2Ftracker.openbittorrent.com%3A80","udp%3A%2F%2Fopen.demonii.com%3A1337","udp%3A%2F%2Ftracker.coppersurfer.tk%3A6969","udp%3A%2F%2Fexodus.desync.com%3A6969"],"infoHash":"af799704c174b7192c8e3b4f0587430b5895087c","infoHashBuffer":{"type":"Buffer","data":[175,121,151,4,193,116,183,25,44,142,59,79,5,135,67,11,88,149,8,124]},"announce":[],"urlList":[]}}